<svg id="logo-pic" class="preloader__icon" version="1.1" 
  xmlns="http://www.w3.org/2000/svg" 
  xmlns:xlink="http://www.w3.org/1999/xlink" x="0px" y="0px" width="565.433px" height="266.711px" viewBox="0 0 565.433 266.711" enable-background="new 0 0 565.433 266.711" xml:space="preserve">
  <linearGradient id="linear-gradient">
    <stop offset="0%" style="stop-color:rgb(0,203,191);stop-opacity:1" />
    <stop offset="100%" style="stop-color:rgb(28,101,235);stop-opacity:1" />
  </linearGradient>
  <g id="_x32_D" enable-background="new">
    <path fill-rule="evenodd" clip-rule="evenodd" fill="none" stroke="url(#linear-gradient)" stroke-width="40" stroke-linecap="round" stroke-linejoin="round" stroke-miterlimit="10" style="stroke-dasharray: 1123, 1125; stroke-dashoffset: 1125;" d="M30.961,54.217c9.934-13.09,32.423-24.59,53.962-24.59c39.488,0,71.5,32,71.5,71.5c0,93.5-128,39.5-128,139.5h152.5c0,0,66.5,0,103.5,0s70-31,70-74s0-42,0-76s-35-62-73-62h-52v139"/>
  </g>
  <g id="i_1_">
    <line fill="none" stroke="#000000" stroke-width="40" stroke-linecap="round" stroke-miterlimit="10" style="stroke-dasharray: 152, 154; stroke-dashoffset: 154;" x1="428.422" y1="87.626" x2="428.422" y2="239.626"/>
  </g>
  <g id="_x2E_">
    <line fill="none" stroke="#000000" stroke-width="40" stroke-linecap="round" stroke-miterlimit="10" style="stroke-dasharray: 1, 3; stroke-dashoffset: 3;" x1="428.422" y1="26.626" x2="428.422" y2="27.626"/>
  </g>
  <g id="t">
    <path fill="none" stroke="#000000" stroke-width="40" stroke-linecap="round" stroke-miterlimit="10" style="stroke-dasharray: 233, 235; stroke-dashoffset: 235;" d="M538.422,238.626c0,0-37,2.154-37-40v-171"/>
  </g>
  <g id="t_1_">
    <line fill="none" stroke="#000000" stroke-width="40" stroke-linecap="round" stroke-miterlimit="10" style="stroke-dasharray: 39, 41; stroke-dashoffset: 41;" x1="502.422" y1="70.626" x2="541.422" y2="70.626"/>
  </g>
</svg>